<svg width="190" height="190" viewBox="0 0 190 190" fill="none" xmlns="http://www.w3.org/2000/svg">
<path d="M187.5 95C187.5 146.086 146.086 187.5 95 187.5C43.9137 187.5 2.5 146.086 2.5 95C2.5 43.9137 43.9137 2.5 95 2.5C146.086 2.5 187.5 43.9137 187.5 95Z" fill="white" stroke="#FFB9B8" stroke-width="5"/>
<circle cx="95" cy="95" r="84.5" stroke="#3F3F3C"/>
<path d="M44 81.496C44.4053 81.496 44.608 82.2427 44.608 83.736C44.608 84.184 44.5547 84.7173 44.448 85.336C44.3627 85.9333 44.192 86.232 43.936 86.232H39.872V89.432H45.76C46.1227 89.432 46.368 89.9013 46.496 90.84C46.56 91.2453 46.592 91.6827 46.592 92.152C46.592 92.6 46.528 93.1867 46.4 93.912C46.272 94.6373 46.0587 95 45.76 95H34.816C34.0053 95 33.6 94.6693 33.6 94.008V73.432C33.6 72.8773 33.8453 72.6 34.336 72.6H45.792C46.24 72.6 46.464 73.5493 46.464 75.448C46.464 77.3253 46.24 78.264 45.792 78.264H39.872V81.496H44ZM55.0453 94.744C55.0453 94.936 53.9573 95.032 51.7812 95.032C50.0746 95.0107 49.2213 94.9253 49.2213 94.776V72.984C49.2213 72.664 50.2559 72.504 52.3253 72.504C54.1386 72.568 55.0453 72.6747 55.0453 72.824V94.744ZM70.2433 94.552C70.2433 94.8933 69.2299 95.064 67.2033 95.064C65.1553 95.064 64.1313 94.904 64.1313 94.584V73.72C64.1313 72.9733 64.5259 72.6 65.3153 72.6H71.4273C77.0379 72.6 79.8433 74.7867 79.8433 79.16C79.8433 80.4827 79.5873 81.688 79.0753 82.776C78.5633 83.8427 77.8379 84.696 76.8993 85.336L80.9313 92.056C80.7606 92.568 80.2059 93.1547 79.2673 93.816C77.9873 94.7333 76.9313 95.192 76.0993 95.192C75.2673 95.192 74.6486 94.8933 74.2433 94.296L71.2353 87.288H70.2433V94.552ZM70.2433 78.264V83.064H70.4033C72.4299 83.064 73.4433 82.2213 73.4433 80.536C73.4433 79.768 73.2406 79.2027 72.8353 78.84C72.4513 78.456 71.8113 78.264 70.9153 78.264H70.2433ZM88.7023 94.808C88.7023 94.9787 87.7209 95.064 85.7583 95.064C83.8169 95.064 82.8463 94.9893 82.8463 94.84V79.128C82.8463 78.9787 83.8169 78.904 85.7583 78.904C87.7209 78.904 88.7023 78.968 88.7023 79.096V94.808ZM88.7023 77.208C88.7023 77.3573 87.7209 77.432 85.7583 77.432C83.8169 77.432 82.8463 77.368 82.8463 77.24V72.632C82.8463 72.4187 83.8169 72.312 85.7583 72.312C87.7209 72.312 88.7023 72.376 88.7023 72.504V77.208ZM98.2843 94.808C98.2843 94.9573 97.5163 95.032 95.9803 95.032C93.8469 94.968 92.7803 94.8507 92.7803 94.68V84.312H91.9483C91.3936 84.312 91.0309 83.8427 90.8603 82.904C90.8176 82.6267 90.7963 82.3493 90.7963 82.072C90.7963 81.4107 90.9243 80.7493 91.1803 80.088C91.5643 79.1493 92.1616 78.68 92.9723 78.68C93.7829 78.68 94.5083 78.872 95.1483 79.256C95.7883 79.64 96.2149 80.024 96.4283 80.408C97.7723 79.256 99.3723 78.68 101.228 78.68C103.084 78.68 104.428 79.1813 105.26 80.184C106.092 81.1867 106.508 82.8293 106.508 85.112V94.712C106.508 94.968 105.591 95.096 103.756 95.096C101.943 95.096 101.036 94.968 101.036 94.712V85.464C101.036 84.3973 100.663 83.864 99.9163 83.864C99.7029 83.864 99.4043 83.96 99.0203 84.152C98.6363 84.3227 98.3909 84.4507 98.2843 84.536V94.808ZM114.469 87.064C114.469 89.1547 115.259 90.2 116.837 90.2C117.861 90.2 118.715 89.9973 119.397 89.592C119.717 89.592 119.973 90.1467 120.165 91.256C120.379 92.344 120.485 93.0907 120.485 93.496C120.485 93.88 120.432 94.136 120.325 94.264C119.195 94.968 117.648 95.32 115.685 95.32C113.723 95.32 112.048 94.5947 110.661 93.144C109.296 91.672 108.613 89.6773 108.613 87.16C108.613 84.6213 109.285 82.5733 110.629 81.016C111.995 79.4587 113.797 78.68 116.037 78.68C118.299 78.68 119.867 79.224 120.741 80.312C120.933 80.5467 121.029 80.8987 121.029 81.368C121.029 81.816 120.944 82.3707 120.773 83.032C120.389 84.3973 119.888 85.1867 119.269 85.4C119.184 85.4213 119.056 85.432 118.885 85.432C118.736 85.432 118.544 85.304 118.309 85.048C117.477 84.216 116.805 83.8 116.293 83.8C115.803 83.8 115.376 84.056 115.013 84.568C114.651 85.08 114.469 85.912 114.469 87.064ZM124.16 93.112C122.837 91.64 122.176 89.6027 122.176 87C122.176 84.3973 122.837 82.36 124.16 80.888C125.504 79.416 127.306 78.68 129.568 78.68C131.829 78.68 133.621 79.416 134.944 80.888C136.266 82.36 136.928 84.3973 136.928 87C136.928 89.6027 136.266 91.64 134.944 93.112C133.621 94.584 131.829 95.32 129.568 95.32C127.306 95.32 125.504 94.584 124.16 93.112ZM129.568 84.024C128.373 84.024 127.776 85.0053 127.776 86.968C127.776 88.9307 128.373 89.912 129.568 89.912C130.784 89.912 131.392 88.9307 131.392 86.968C131.392 85.0053 130.784 84.024 129.568 84.024ZM127.072 78.072C126.88 78.072 126.634 77.8587 126.336 77.432C125.952 76.8347 125.76 76.3333 125.76 75.928C125.76 75.5227 125.824 75.256 125.952 75.128C129.429 73.208 131.2 72.248 131.264 72.248C131.477 72.248 131.744 72.504 132.064 73.016C132.554 73.7627 132.8 74.4667 132.8 75.128C132.8 75.3627 132.746 75.5333 132.64 75.64C128.97 77.2613 127.114 78.072 127.072 78.072ZM145.878 94.808C145.878 94.9573 145.11 95.032 143.574 95.032C141.441 94.968 140.374 94.8507 140.374 94.68V84.312H139.542C138.987 84.312 138.625 83.8427 138.454 82.904C138.411 82.6267 138.39 82.3493 138.39 82.072C138.39 81.4107 138.518 80.7493 138.774 80.088C139.158 79.1493 139.755 78.68 140.566 78.68C141.377 78.68 142.102 78.872 142.742 79.256C143.382 79.64 143.809 80.024 144.022 80.408C145.366 79.256 146.966 78.68 148.822 78.68C150.678 78.68 152.022 79.1813 152.854 80.184C153.686 81.1867 154.102 82.8293 154.102 85.112V94.712C154.102 94.968 153.185 95.096 151.35 95.096C149.537 95.096 148.63 94.968 148.63 94.712V85.464C148.63 84.3973 148.257 83.864 147.51 83.864C147.297 83.864 146.998 83.96 146.614 84.152C146.23 84.3227 145.985 84.4507 145.878 84.536V94.808Z" fill="#3F3F3C"/>
<path d="M33.6466 110.5H39.1516C39.2716 110.5 39.3766 110.545 39.4666 110.635C39.5566 110.715 39.6016 110.82 39.6016 110.95C39.6016 111.08 39.5566 111.185 39.4666 111.265C39.3766 111.345 39.2716 111.385 39.1516 111.385H33.9916L34.1416 111.13V115.345L33.9766 115.15H38.4766C38.5966 115.15 38.7016 115.195 38.7916 115.285C38.8816 115.375 38.9266 115.48 38.9266 115.6C38.9266 115.73 38.8816 115.835 38.7916 115.915C38.7016 115.995 38.5966 116.035 38.4766 116.035H34.0066L34.1416 115.885V120.205L34.0666 120.115H39.1516C39.2716 120.115 39.3766 120.16 39.4666 120.25C39.5566 120.34 39.6016 120.445 39.6016 120.565C39.6016 120.695 39.5566 120.8 39.4666 120.88C39.3766 120.96 39.2716 121 39.1516 121H33.6466C33.5266 121 33.4216 120.955 33.3316 120.865C33.2416 120.775 33.1966 120.67 33.1966 120.55V110.95C33.1966 110.83 33.2416 110.725 33.3316 110.635C33.4216 110.545 33.5266 110.5 33.6466 110.5ZM41.062 119.785C40.982 119.665 40.942 119.55 40.942 119.44C40.952 119.32 41.017 119.225 41.137 119.155C41.217 119.085 41.307 119.055 41.407 119.065C41.517 119.075 41.617 119.125 41.707 119.215C41.977 119.565 42.302 119.85 42.682 120.07C43.072 120.28 43.532 120.385 44.062 120.385C44.342 120.385 44.617 120.34 44.887 120.25C45.167 120.15 45.397 120.005 45.577 119.815C45.757 119.615 45.847 119.365 45.847 119.065C45.847 118.755 45.757 118.505 45.577 118.315C45.397 118.125 45.162 117.975 44.872 117.865C44.592 117.755 44.292 117.66 43.972 117.58C43.632 117.49 43.302 117.39 42.982 117.28C42.662 117.16 42.377 117.015 42.127 116.845C41.887 116.665 41.692 116.45 41.542 116.2C41.392 115.95 41.317 115.645 41.317 115.285C41.317 114.865 41.432 114.495 41.662 114.175C41.892 113.855 42.202 113.605 42.592 113.425C42.992 113.245 43.442 113.155 43.942 113.155C44.192 113.155 44.462 113.19 44.752 113.26C45.042 113.32 45.327 113.425 45.607 113.575C45.887 113.725 46.137 113.93 46.357 114.19C46.447 114.28 46.492 114.385 46.492 114.505C46.492 114.615 46.442 114.715 46.342 114.805C46.262 114.865 46.167 114.895 46.057 114.895C45.957 114.895 45.872 114.855 45.802 114.775C45.562 114.505 45.277 114.3 44.947 114.16C44.617 114.02 44.262 113.95 43.882 113.95C43.592 113.95 43.317 114 43.057 114.1C42.807 114.19 42.597 114.33 42.427 114.52C42.257 114.71 42.172 114.96 42.172 115.27C42.192 115.56 42.292 115.795 42.472 115.975C42.662 116.155 42.907 116.305 43.207 116.425C43.517 116.545 43.862 116.655 44.242 116.755C44.562 116.835 44.867 116.93 45.157 117.04C45.457 117.15 45.717 117.29 45.937 117.46C46.167 117.62 46.347 117.825 46.477 118.075C46.617 118.325 46.687 118.64 46.687 119.02C46.687 119.46 46.562 119.84 46.312 120.16C46.072 120.48 45.747 120.725 45.337 120.895C44.927 121.065 44.472 121.15 43.972 121.15C43.432 121.15 42.907 121.045 42.397 120.835C41.897 120.625 41.452 120.275 41.062 119.785ZM52.1733 113.275C52.8533 113.275 53.4533 113.445 53.9733 113.785C54.5033 114.115 54.9233 114.575 55.2333 115.165C55.5433 115.745 55.6983 116.415 55.6983 117.175C55.6983 117.935 55.5433 118.61 55.2333 119.2C54.9233 119.79 54.5033 120.255 53.9733 120.595C53.4433 120.935 52.8483 121.105 52.1883 121.105C51.8383 121.105 51.5033 121.055 51.1833 120.955C50.8733 120.845 50.5883 120.7 50.3283 120.52C50.0683 120.34 49.8383 120.13 49.6383 119.89C49.4383 119.64 49.2783 119.37 49.1583 119.08L49.4283 118.885V123.55C49.4283 123.67 49.3833 123.775 49.2933 123.865C49.2133 123.955 49.1083 124 48.9783 124C48.8483 124 48.7383 123.955 48.6483 123.865C48.5683 123.775 48.5283 123.67 48.5283 123.55V113.77C48.5283 113.64 48.5683 113.53 48.6483 113.44C48.7283 113.35 48.8383 113.305 48.9783 113.305C49.1083 113.305 49.2133 113.35 49.2933 113.44C49.3833 113.53 49.4283 113.64 49.4283 113.77V115.39L49.2183 115.27C49.3183 114.96 49.4633 114.685 49.6533 114.445C49.8533 114.195 50.0833 113.985 50.3433 113.815C50.6033 113.635 50.8883 113.5 51.1983 113.41C51.5083 113.32 51.8333 113.275 52.1733 113.275ZM52.0983 114.115C51.5583 114.115 51.0833 114.25 50.6733 114.52C50.2633 114.78 49.9383 115.14 49.6983 115.6C49.4683 116.05 49.3533 116.575 49.3533 117.175C49.3533 117.765 49.4683 118.295 49.6983 118.765C49.9383 119.235 50.2633 119.605 50.6733 119.875C51.0833 120.135 51.5583 120.265 52.0983 120.265C52.6283 120.265 53.0933 120.135 53.4933 119.875C53.9033 119.605 54.2283 119.235 54.4683 118.765C54.7083 118.295 54.8283 117.765 54.8283 117.175C54.8283 116.585 54.7083 116.06 54.4683 115.6C54.2283 115.14 53.9033 114.78 53.4933 114.52C53.0933 114.25 52.6283 114.115 52.0983 114.115ZM63.9099 113.335C64.0399 113.335 64.1449 113.38 64.2249 113.47C64.3149 113.56 64.3599 113.67 64.3599 113.8V120.55C64.3599 120.67 64.3149 120.775 64.2249 120.865C64.1349 120.955 64.0299 121 63.9099 121C63.7799 121 63.6699 120.955 63.5799 120.865C63.4999 120.775 63.4599 120.67 63.4599 120.55V118.765L63.7149 118.645C63.7149 118.925 63.6349 119.21 63.4749 119.5C63.3249 119.79 63.1149 120.06 62.8449 120.31C62.5749 120.56 62.2549 120.765 61.8849 120.925C61.5249 121.075 61.1349 121.15 60.7149 121.15C60.0349 121.15 59.4249 120.975 58.8849 120.625C58.3549 120.275 57.9349 119.795 57.6249 119.185C57.3249 118.575 57.1749 117.89 57.1749 117.13C57.1749 116.35 57.3299 115.665 57.6399 115.075C57.9499 114.475 58.3699 114.005 58.8999 113.665C59.4299 113.325 60.0299 113.155 60.6999 113.155C61.1299 113.155 61.5299 113.23 61.8999 113.38C62.2799 113.53 62.6099 113.735 62.8899 113.995C63.1699 114.255 63.3849 114.555 63.5349 114.895C63.6949 115.225 63.7749 115.57 63.7749 115.93L63.4599 115.705V113.8C63.4599 113.67 63.4999 113.56 63.5799 113.47C63.6699 113.38 63.7799 113.335 63.9099 113.335ZM60.7899 120.31C61.3199 120.31 61.7899 120.175 62.1999 119.905C62.6099 119.625 62.9299 119.245 63.1599 118.765C63.3999 118.275 63.5199 117.73 63.5199 117.13C63.5199 116.54 63.3999 116.01 63.1599 115.54C62.9299 115.07 62.6099 114.695 62.1999 114.415C61.7899 114.135 61.3199 113.995 60.7899 113.995C60.2699 113.995 59.7999 114.13 59.3799 114.4C58.9699 114.67 58.6449 115.04 58.4049 115.51C58.1749 115.98 58.0599 116.52 58.0599 117.13C58.0599 117.73 58.1749 118.275 58.4049 118.765C58.6449 119.245 58.9699 119.625 59.3799 119.905C59.7899 120.175 60.2599 120.31 60.7899 120.31ZM70.0966 113.155C70.5766 113.155 71.0166 113.21 71.4166 113.32C71.8166 113.42 72.1366 113.56 72.3766 113.74C72.6266 113.92 72.7516 114.115 72.7516 114.325C72.7516 114.425 72.7166 114.525 72.6466 114.625C72.5766 114.715 72.4816 114.76 72.3616 114.76C72.2416 114.76 72.1416 114.73 72.0616 114.67C71.9916 114.61 71.9166 114.54 71.8366 114.46C71.7666 114.38 71.6616 114.305 71.5216 114.235C71.3916 114.175 71.2066 114.12 70.9666 114.07C70.7266 114.02 70.4516 113.995 70.1416 113.995C69.5816 113.995 69.0766 114.135 68.6266 114.415C68.1766 114.695 67.8216 115.075 67.5616 115.555C67.3016 116.025 67.1716 116.555 67.1716 117.145C67.1716 117.745 67.2966 118.285 67.5466 118.765C67.7966 119.245 68.1416 119.625 68.5816 119.905C69.0216 120.175 69.5366 120.31 70.1266 120.31C70.5266 120.31 70.8366 120.275 71.0566 120.205C71.2766 120.135 71.4666 120.055 71.6266 119.965C71.8166 119.855 71.9516 119.75 72.0316 119.65C72.1216 119.54 72.2366 119.485 72.3766 119.485C72.5066 119.485 72.6016 119.525 72.6616 119.605C72.7316 119.675 72.7666 119.77 72.7666 119.89C72.7666 120.05 72.6466 120.23 72.4066 120.43C72.1766 120.62 71.8566 120.79 71.4466 120.94C71.0366 121.08 70.5666 121.15 70.0366 121.15C69.2866 121.15 68.6266 120.975 68.0566 120.625C67.4966 120.275 67.0566 119.8 66.7366 119.2C66.4266 118.59 66.2716 117.905 66.2716 117.145C66.2716 116.415 66.4316 115.75 66.7516 115.15C67.0716 114.55 67.5166 114.07 68.0866 113.71C68.6666 113.34 69.3366 113.155 70.0966 113.155ZM75.3553 120.55C75.3553 120.67 75.3103 120.775 75.2203 120.865C75.1303 120.955 75.0253 121 74.9053 121C74.7753 121 74.6653 120.955 74.5753 120.865C74.4953 120.775 74.4553 120.67 74.4553 120.55V113.65C74.4553 113.53 74.4953 113.425 74.5753 113.335C74.6653 113.245 74.7753 113.2 74.9053 113.2C75.0353 113.2 75.1403 113.245 75.2203 113.335C75.3103 113.425 75.3553 113.53 75.3553 113.65V120.55ZM74.9053 112.195C74.6953 112.195 74.5353 112.15 74.4253 112.06C74.3253 111.96 74.2753 111.82 74.2753 111.64V111.49C74.2753 111.31 74.3303 111.175 74.4403 111.085C74.5603 110.985 74.7203 110.935 74.9203 110.935C75.1103 110.935 75.2553 110.985 75.3553 111.085C75.4653 111.175 75.5203 111.31 75.5203 111.49V111.64C75.5203 111.82 75.4653 111.96 75.3553 112.06C75.2553 112.15 75.1053 112.195 74.9053 112.195ZM84.8333 117.16C84.8333 117.92 84.6683 118.605 84.3383 119.215C84.0083 119.815 83.5583 120.29 82.9883 120.64C82.4183 120.98 81.7683 121.15 81.0383 121.15C80.3283 121.15 79.6833 120.98 79.1033 120.64C78.5333 120.29 78.0783 119.815 77.7383 119.215C77.4083 118.605 77.2433 117.92 77.2433 117.16C77.2433 116.39 77.4083 115.705 77.7383 115.105C78.0783 114.505 78.5333 114.03 79.1033 113.68C79.6833 113.33 80.3283 113.155 81.0383 113.155C81.7683 113.155 82.4183 113.33 82.9883 113.68C83.5583 114.03 84.0083 114.505 84.3383 115.105C84.6683 115.705 84.8333 116.39 84.8333 117.16ZM83.9333 117.16C83.9333 116.55 83.8083 116.01 83.5583 115.54C83.3083 115.06 82.9633 114.685 82.5233 114.415C82.0933 114.135 81.5983 113.995 81.0383 113.995C80.4983 113.995 80.0083 114.135 79.5683 114.415C79.1283 114.685 78.7783 115.06 78.5183 115.54C78.2683 116.01 78.1433 116.55 78.1433 117.16C78.1433 117.77 78.2683 118.31 78.5183 118.78C78.7783 119.25 79.1283 119.625 79.5683 119.905C80.0083 120.175 80.4983 120.31 81.0383 120.31C81.5983 120.31 82.0933 120.175 82.5233 119.905C82.9633 119.625 83.3083 119.25 83.5583 118.78C83.8083 118.31 83.9333 117.77 83.9333 117.16ZM97.1326 109.9C97.2626 109.9 97.3676 109.945 97.4476 110.035C97.5376 110.115 97.5826 110.22 97.5826 110.35V120.55C97.5826 120.67 97.5376 120.775 97.4476 120.865C97.3576 120.955 97.2526 121 97.1326 121C97.0026 121 96.8926 120.955 96.8026 120.865C96.7226 120.775 96.6826 120.67 96.6826 120.55V118.765L96.9376 118.555C96.9376 118.835 96.8626 119.13 96.7126 119.44C96.5626 119.74 96.3476 120.02 96.0676 120.28C95.7976 120.54 95.4776 120.75 95.1076 120.91C94.7476 121.07 94.3576 121.15 93.9376 121.15C93.2676 121.15 92.6626 120.975 92.1226 120.625C91.5926 120.275 91.1726 119.8 90.8626 119.2C90.5526 118.6 90.3976 117.915 90.3976 117.145C90.3976 116.385 90.5526 115.705 90.8626 115.105C91.1726 114.495 91.5926 114.02 92.1226 113.68C92.6526 113.33 93.2526 113.155 93.9226 113.155C94.3326 113.155 94.7226 113.23 95.0926 113.38C95.4626 113.53 95.7876 113.735 96.0676 113.995C96.3576 114.255 96.5826 114.555 96.7426 114.895C96.9126 115.225 96.9976 115.57 96.9976 115.93L96.6826 115.705V110.35C96.6826 110.23 96.7226 110.125 96.8026 110.035C96.8926 109.945 97.0026 109.9 97.1326 109.9ZM94.0126 120.31C94.5526 120.31 95.0226 120.175 95.4226 119.905C95.8326 119.625 96.1526 119.25 96.3826 118.78C96.6226 118.3 96.7426 117.755 96.7426 117.145C96.7426 116.545 96.6226 116.01 96.3826 115.54C96.1526 115.06 95.8326 114.685 95.4226 114.415C95.0126 114.135 94.5426 113.995 94.0126 113.995C93.4926 113.995 93.0226 114.135 92.6026 114.415C92.1926 114.685 91.8676 115.06 91.6276 115.54C91.3976 116.01 91.2826 116.545 91.2826 117.145C91.2826 117.745 91.3976 118.285 91.6276 118.765C91.8676 119.245 92.1926 119.625 92.6026 119.905C93.0226 120.175 93.4926 120.31 94.0126 120.31ZM103.409 121.15C102.639 121.15 101.959 120.985 101.369 120.655C100.779 120.325 100.319 119.865 99.9893 119.275C99.6593 118.685 99.4943 117.995 99.4943 117.205C99.4943 116.355 99.6593 115.63 99.9893 115.03C100.329 114.43 100.764 113.97 101.294 113.65C101.834 113.32 102.404 113.155 103.004 113.155C103.444 113.155 103.869 113.235 104.279 113.395C104.699 113.545 105.069 113.775 105.389 114.085C105.719 114.385 105.979 114.755 106.169 115.195C106.369 115.635 106.479 116.145 106.499 116.725C106.489 116.845 106.439 116.95 106.349 117.04C106.259 117.12 106.154 117.16 106.034 117.16H100.019L99.8393 116.35H105.749L105.554 116.53V116.23C105.514 115.76 105.364 115.36 105.104 115.03C104.844 114.7 104.529 114.45 104.159 114.28C103.789 114.11 103.404 114.025 103.004 114.025C102.704 114.025 102.394 114.085 102.074 114.205C101.764 114.325 101.479 114.515 101.219 114.775C100.969 115.025 100.764 115.35 100.604 115.75C100.444 116.14 100.364 116.605 100.364 117.145C100.364 117.735 100.484 118.27 100.724 118.75C100.964 119.23 101.309 119.61 101.759 119.89C102.219 120.17 102.764 120.31 103.394 120.31C103.744 120.31 104.059 120.26 104.339 120.16C104.619 120.06 104.864 119.93 105.074 119.77C105.284 119.6 105.459 119.425 105.599 119.245C105.709 119.155 105.819 119.11 105.929 119.11C106.029 119.11 106.114 119.15 106.184 119.23C106.264 119.31 106.304 119.4 106.304 119.5C106.304 119.62 106.254 119.725 106.154 119.815C105.854 120.175 105.464 120.49 104.984 120.76C104.504 121.02 103.979 121.15 103.409 121.15ZM113.517 120.55C113.517 120.67 113.472 120.775 113.382 120.865C113.292 120.955 113.187 121 113.067 121C112.937 121 112.827 120.955 112.737 120.865C112.657 120.775 112.617 120.67 112.617 120.55V110.35C112.617 110.23 112.662 110.125 112.752 110.035C112.842 109.945 112.947 109.9 113.067 109.9C113.197 109.9 113.302 109.945 113.382 110.035C113.472 110.125 113.517 110.23 113.517 110.35V120.55ZM119.303 121.15C118.533 121.15 117.853 120.985 117.263 120.655C116.673 120.325 116.213 119.865 115.883 119.275C115.553 118.685 115.388 117.995 115.388 117.205C115.388 116.355 115.553 115.63 115.883 115.03C116.223 114.43 116.658 113.97 117.188 113.65C117.728 113.32 118.298 113.155 118.898 113.155C119.338 113.155 119.763 113.235 120.173 113.395C120.593 113.545 120.963 113.775 121.283 114.085C121.613 114.385 121.873 114.755 122.063 115.195C122.263 115.635 122.373 116.145 122.393 116.725C122.383 116.845 122.333 116.95 122.243 117.04C122.153 117.12 122.048 117.16 121.928 117.16H115.913L115.733 116.35H121.643L121.448 116.53V116.23C121.408 115.76 121.258 115.36 120.998 115.03C120.738 114.7 120.423 114.45 120.053 114.28C119.683 114.11 119.298 114.025 118.898 114.025C118.598 114.025 118.288 114.085 117.968 114.205C117.658 114.325 117.373 114.515 117.113 114.775C116.863 115.025 116.658 115.35 116.498 115.75C116.338 116.14 116.258 116.605 116.258 117.145C116.258 117.735 116.378 118.27 116.618 118.75C116.858 119.23 117.203 119.61 117.653 119.89C118.113 120.17 118.658 120.31 119.288 120.31C119.638 120.31 119.953 120.26 120.233 120.16C120.513 120.06 120.758 119.93 120.968 119.77C121.178 119.6 121.353 119.425 121.493 119.245C121.603 119.155 121.713 119.11 121.823 119.11C121.923 119.11 122.008 119.15 122.078 119.23C122.158 119.31 122.198 119.4 122.198 119.5C122.198 119.62 122.148 119.725 122.048 119.815C121.748 120.175 121.358 120.49 120.878 120.76C120.398 121.02 119.873 121.15 119.303 121.15ZM127.694 113.155C128.174 113.155 128.614 113.21 129.014 113.32C129.414 113.42 129.734 113.56 129.974 113.74C130.224 113.92 130.349 114.115 130.349 114.325C130.349 114.425 130.314 114.525 130.244 114.625C130.174 114.715 130.079 114.76 129.959 114.76C129.839 114.76 129.739 114.73 129.659 114.67C129.589 114.61 129.514 114.54 129.434 114.46C129.364 114.38 129.259 114.305 129.119 114.235C128.989 114.175 128.804 114.12 128.564 114.07C128.324 114.02 128.049 113.995 127.739 113.995C127.179 113.995 126.674 114.135 126.224 114.415C125.774 114.695 125.419 115.075 125.159 115.555C124.899 116.025 124.769 116.555 124.769 117.145C124.769 117.745 124.894 118.285 125.144 118.765C125.394 119.245 125.739 119.625 126.179 119.905C126.619 120.175 127.134 120.31 127.724 120.31C128.124 120.31 128.434 120.275 128.654 120.205C128.874 120.135 129.064 120.055 129.224 119.965C129.414 119.855 129.549 119.75 129.629 119.65C129.719 119.54 129.834 119.485 129.974 119.485C130.104 119.485 130.199 119.525 130.259 119.605C130.329 119.675 130.364 119.77 130.364 119.89C130.364 120.05 130.244 120.23 130.004 120.43C129.774 120.62 129.454 120.79 129.044 120.94C128.634 121.08 128.164 121.15 127.634 121.15C126.884 121.15 126.224 120.975 125.654 120.625C125.094 120.275 124.654 119.8 124.334 119.2C124.024 118.59 123.869 117.905 123.869 117.145C123.869 116.415 124.029 115.75 124.349 115.15C124.669 114.55 125.114 114.07 125.684 113.71C126.264 113.34 126.934 113.155 127.694 113.155ZM131.588 113.365H135.083C135.203 113.365 135.303 113.41 135.383 113.5C135.463 113.58 135.503 113.68 135.503 113.8C135.503 113.91 135.463 114.005 135.383 114.085C135.303 114.165 135.203 114.205 135.083 114.205H131.588C131.468 114.205 131.363 114.165 131.273 114.085C131.193 113.995 131.153 113.895 131.153 113.785C131.153 113.665 131.193 113.565 131.273 113.485C131.363 113.405 131.468 113.365 131.588 113.365ZM133.133 111.25C133.263 111.25 133.368 111.295 133.448 111.385C133.538 111.475 133.583 111.58 133.583 111.7V119.23C133.583 119.51 133.618 119.72 133.688 119.86C133.768 120 133.868 120.095 133.988 120.145C134.108 120.185 134.228 120.205 134.348 120.205C134.428 120.205 134.498 120.195 134.558 120.175C134.628 120.145 134.703 120.13 134.783 120.13C134.873 120.13 134.948 120.165 135.008 120.235C135.078 120.305 135.113 120.395 135.113 120.505C135.113 120.645 135.033 120.765 134.873 120.865C134.713 120.955 134.523 121 134.303 121C134.213 121 134.078 120.995 133.898 120.985C133.718 120.965 133.533 120.91 133.343 120.82C133.153 120.72 132.993 120.55 132.863 120.31C132.743 120.07 132.683 119.725 132.683 119.275V111.7C132.683 111.58 132.723 111.475 132.803 111.385C132.893 111.295 133.003 111.25 133.133 111.25ZM142.896 113.38C143.026 113.38 143.131 113.425 143.211 113.515C143.301 113.605 143.346 113.71 143.346 113.83V118.06C143.346 119.05 143.066 119.805 142.506 120.325C141.946 120.845 141.191 121.105 140.241 121.105C139.301 121.105 138.551 120.845 137.991 120.325C137.441 119.805 137.166 119.05 137.166 118.06V113.83C137.166 113.71 137.206 113.605 137.286 113.515C137.376 113.425 137.486 113.38 137.616 113.38C137.746 113.38 137.851 113.425 137.931 113.515C138.021 113.605 138.066 113.71 138.066 113.83V118.06C138.066 118.78 138.256 119.33 138.636 119.71C139.026 120.08 139.561 120.265 140.241 120.265C140.931 120.265 141.471 120.08 141.861 119.71C142.251 119.33 142.446 118.78 142.446 118.06V113.83C142.446 113.71 142.486 113.605 142.566 113.515C142.646 113.425 142.756 113.38 142.896 113.38ZM146.156 121C146.016 121 145.906 120.955 145.826 120.865C145.746 120.775 145.706 120.67 145.706 120.55V113.83C145.706 113.71 145.746 113.605 145.826 113.515C145.916 113.425 146.026 113.38 146.156 113.38C146.286 113.38 146.391 113.425 146.471 113.515C146.561 113.605 146.606 113.71 146.606 113.83V116.08L146.381 116.125C146.411 115.775 146.496 115.43 146.636 115.09C146.786 114.74 146.986 114.42 147.236 114.13C147.486 113.84 147.781 113.605 148.121 113.425C148.471 113.245 148.861 113.155 149.291 113.155C149.471 113.155 149.646 113.195 149.816 113.275C149.986 113.345 150.071 113.465 150.071 113.635C150.071 113.785 150.031 113.9 149.951 113.98C149.871 114.06 149.776 114.1 149.666 114.1C149.576 114.1 149.476 114.075 149.366 114.025C149.266 113.975 149.131 113.95 148.961 113.95C148.681 113.95 148.401 114.035 148.121 114.205C147.841 114.365 147.586 114.585 147.356 114.865C147.126 115.145 146.941 115.46 146.801 115.81C146.671 116.15 146.606 116.495 146.606 116.845V120.55C146.606 120.67 146.561 120.775 146.471 120.865C146.381 120.955 146.276 121 146.156 121ZM157.587 113.335C157.717 113.335 157.822 113.38 157.902 113.47C157.992 113.56 158.037 113.67 158.037 113.8V120.55C158.037 120.67 157.992 120.775 157.902 120.865C157.812 120.955 157.707 121 157.587 121C157.457 121 157.347 120.955 157.257 120.865C157.177 120.775 157.137 120.67 157.137 120.55V118.765L157.392 118.645C157.392 118.925 157.312 119.21 157.152 119.5C157.002 119.79 156.792 120.06 156.522 120.31C156.252 120.56 155.932 120.765 155.562 120.925C155.202 121.075 154.812 121.15 154.392 121.15C153.712 121.15 153.102 120.975 152.562 120.625C152.032 120.275 151.612 119.795 151.302 119.185C151.002 118.575 150.852 117.89 150.852 117.13C150.852 116.35 151.007 115.665 151.317 115.075C151.627 114.475 152.047 114.005 152.577 113.665C153.107 113.325 153.707 113.155 154.377 113.155C154.807 113.155 155.207 113.23 155.577 113.38C155.957 113.53 156.287 113.735 156.567 113.995C156.847 114.255 157.062 114.555 157.212 114.895C157.372 115.225 157.452 115.57 157.452 115.93L157.137 115.705V113.8C157.137 113.67 157.177 113.56 157.257 113.47C157.347 113.38 157.457 113.335 157.587 113.335ZM154.467 120.31C154.997 120.31 155.467 120.175 155.877 119.905C156.287 119.625 156.607 119.245 156.837 118.765C157.077 118.275 157.197 117.73 157.197 117.13C157.197 116.54 157.077 116.01 156.837 115.54C156.607 115.07 156.287 114.695 155.877 114.415C155.467 114.135 154.997 113.995 154.467 113.995C153.947 113.995 153.477 114.13 153.057 114.4C152.647 114.67 152.322 115.04 152.082 115.51C151.852 115.98 151.737 116.52 151.737 117.13C151.737 117.73 151.852 118.275 152.082 118.765C152.322 119.245 152.647 119.625 153.057 119.905C153.467 120.175 153.937 120.31 154.467 120.31Z" fill="#3F3F3C"/>
</svg>
